<?xml version="1.0" encoding="UTF-8"?>
<svg xmlns="http://www.w3.org/2000/svg" width="1320" height="500" viewBox="0 0 1320 500"><rect x="0" y="0" width="1320" height="500" fill="#ffffff"/><text x="24" y="28" fill="#111111" font-family="Arial" font-size="20px" font-weight="700">Controller Scheme 1 - Bindings</text><text x="24" y="44" fill="#4a4a4a" font-family="Arial" font-size="12px" font-weight="700">Action</text><text x="560" y="44" fill="#4a4a4a" font-family="Arial" font-size="12px" font-weight="700">Gamepad</text><text x="900" y="44" fill="#4a4a4a" font-family="Arial" font-size="12px" font-weight="700">Mouse/Keyboard</text><line x1="0" y1="54" x2="1320" y2="54" stroke="#d9d9d9" stroke-width="1"/><text x="24" y="84" fill="#111111" font-family="Arial" font-size="14px" font-weight="400">Accelerate</text><svg id="Layer_1" xmlns="http://www.w3.org/2000/svg" viewBox="0 0 27 27" x="560" y="70" width="18" height="18" preserveAspectRatio="xMidYMid meet"><path d="m10.64,8.96c0,.38-.25.66-.56.66h-1.3v-1.31h1.3c.31,0,.56.27.56.65Z" fill="#000000" style="fill: rgb(0, 0, 0);"/><path d="m24.66,21.32c-1.19-2.52-3.55-8.8-1.78-16.08.11-.46.05-.95-.18-1.35-.32-.56-.92-.91-1.56-.91H4.25c-1.03,0-1.9.79-1.98,1.83-.29,3.52-.21,11.4,5.31,16.92,1.86,1.86,4.43,2.83,7.06,2.83h6.6c1.1,0,2.16-.4,2.98-1.14.39-.35.6-.85.6-1.35,0-.25-.05-.51-.16-.75Zm-14.05-7.55l-1.1-2.58h-.73v2.58h-1.99v-7.07h3.78c1.38,0,2.09,1.02,2.09,2.17,0,.82-.4,1.6-1.2,1.94l1.38,2.96h-2.23Zm8.68-5.26h-2.03v5.26h-1.98v-5.26h-2.03v-1.81h6.04v1.81Z" fill="#000000" style="fill: rgb(0, 0, 0);"/></svg><text x="900" y="84" fill="#111111" font-family="Arial" font-size="14px" font-weight="400">UP + W</text><text x="24" y="118" fill="#111111" font-family="Arial" font-size="14px" font-weight="400">Back/Cancel</text><svg id="Layer_1" xmlns="http://www.w3.org/2000/svg" viewBox="0 0 27 27" x="560" y="104" width="18" height="18" preserveAspectRatio="xMidYMid meet"><path id="Path_360" d="m18.1,2.61c2.83,1.2,5.09,3.45,6.29,6.29,1.23,2.94,1.23,6.26,0,9.2-1.2,2.83-3.45,5.09-6.29,6.29-2.94,1.23-6.26,1.23-9.2,0-2.83-1.2-5.09-3.46-6.29-6.29-1.23-2.94-1.23-6.26,0-9.2,1.2-2.83,3.45-5.09,6.29-6.29,2.94-1.23,6.26-1.23,9.2,0m-1.38,15.16c.32-.26.58-.6.75-.98.17-.39.26-.81.25-1.24,0-.3-.05-.59-.16-.87-.11-.27-.27-.51-.47-.71-.2-.24-.46-.43-.75-.55-.32-.13-.65-.22-.99-.26v-.03c.28-.08.55-.19.8-.33.24-.13.46-.31.65-.51.18-.2.33-.42.42-.67.09-.25.13-.51.13-.78,0-.35-.08-.69-.25-1-.17-.3-.41-.57-.7-.76-.34-.22-.71-.38-1.11-.48-.49-.11-1-.17-1.5-.16h-3.66v10.12h3.88c.52,0,1.03-.06,1.53-.2.43-.13.83-.33,1.19-.59m-1.5-2.81c.07.16.1.34.1.51,0,.2-.04.39-.12.57-.09.18-.21.33-.35.46-.15.13-.33.22-.53.28-.22.06-.45.09-.68.09h-1.24v-2.66h1.27c.24,0,.47.03.7.09.19.06.37.14.54.25.13.11.24.25.32.41m-1.17-2.52c-.19.07-.39.12-.59.13h-1v-2.4h.84c.43-.03.85.06,1.23.26.27.18.43.49.41.82,0,.18-.03.36-.11.53-.07.16-.18.3-.32.4-.14.11-.29.2-.46.26" fill="#000000" style="fill: rgb(0, 0, 0);"/></svg><text x="900" y="118" fill="#111111" font-family="Arial" font-size="14px" font-weight="400">BACKSPACE</text><text x="24" y="152" fill="#111111" font-family="Arial" font-size="14px" font-weight="400">Brake</text><svg id="Layer_1" xmlns="http://www.w3.org/2000/svg" viewBox="0 0 27 27" x="560" y="138" width="18" height="18" preserveAspectRatio="xMidYMid meet"><path d="m24.73,4.81c-.08-1.04-.95-1.83-1.98-1.83H5.87c-.65,0-1.24.35-1.57.91-.23.4-.29.89-.18,1.35,1.77,7.28-.59,13.56-1.77,16.08-.12.24-.17.5-.17.76,0,.5.21.99.6,1.34.82.74,1.88,1.14,2.99,1.14h6.59c2.63,0,5.2-.97,7.06-2.83,5.52-5.52,5.6-13.4,5.31-16.92Zm-10.73,8.96h-5.16v-7.07h1.99v5.26h3.17v1.81Zm5.96-5.26h-2.02v5.26h-1.99v-5.26h-2.03v-1.81h6.04v1.81Z" fill="#000000" style="fill: rgb(0, 0, 0);"/></svg><text x="900" y="152" fill="#111111" font-family="Arial" font-size="14px" font-weight="400">DOWN + S</text><text x="24" y="186" fill="#111111" font-family="Arial" font-size="14px" font-weight="400">Code Input Down/Navigate Menu Down/Move Backwards</text><svg id="Layer_1" xmlns="http://www.w3.org/2000/svg" viewBox="0 0 27 27" x="560" y="172" width="18" height="18" preserveAspectRatio="xMidYMid meet"><path d="m22.1,9.94l-.02-.07h-5.19v-4.82l-.06-.03c-2.13-.87-4.51-.87-6.64,0l-.06.03v4.82h-5.19l-.02.07c-.87,2.29-.87,4.83,0,7.12l.02.07h5.19v4.83l.07.02c1.05.42,2.18.64,3.31.66,1.14,0,2.26-.23,3.32-.66l.06-.02v-4.83h5.19l.02-.07c.87-2.29.87-4.83,0-7.12Zm-6.42,11.2c-.7.23-1.44.35-2.17.36-.75,0-1.48-.13-2.19-.35v-3.79l2.18-2.18,2.18,2.18v3.78Z" fill="#000000" style="fill: rgb(0, 0, 0);"/></svg><text x="900" y="186" fill="#111111" font-family="Arial" font-size="14px" font-weight="400">DOWN + S</text><text x="24" y="220" fill="#111111" font-family="Arial" font-size="14px" font-weight="400">Code Input Left/Navigate Menu Left/Move Left</text><svg id="Layer_1" xmlns="http://www.w3.org/2000/svg" viewBox="0 0 27 27" x="560" y="206" width="18" height="18" preserveAspectRatio="xMidYMid meet"><path d="m21.99,10.18l-.03-.07h-4.82v-5.18l-.07-.03c-2.29-.86-4.83-.86-7.12,0l-.08.03v5.18h-4.82l-.02.07c-.42,1.06-.64,2.18-.66,3.31-.02,1.14.23,2.27.66,3.32l.02.07h4.82v5.18l.08.03c2.29.86,4.83.86,7.12,0l.07-.03v-5.18h4.82l.03-.07c.87-2.12.87-4.51,0-6.63Zm-12.19,5.5h-3.79c-.23-.71-.34-1.45-.36-2.17.02-.75.13-1.48.36-2.2h3.79l2.18,2.19-2.18,2.18Z" fill="#000000" style="fill: rgb(0, 0, 0);"/></svg><text x="900" y="220" fill="#111111" font-family="Arial" font-size="14px" font-weight="400">LEFT + A</text><text x="24" y="254" fill="#111111" font-family="Arial" font-size="14px" font-weight="400">Code Input Right/Navigate Menu Right/Move Right</text><svg id="Layer_1" xmlns="http://www.w3.org/2000/svg" viewBox="0 0 27 27" x="560" y="240" width="18" height="18" preserveAspectRatio="xMidYMid meet"><path d="m21.99,10.18l-.03-.07h-4.82v-5.18l-.07-.03c-2.3-.86-4.83-.86-7.13,0l-.07.03v5.18h-4.82l-.02.07c-.87,2.12-.87,4.51,0,6.63l.02.07h4.82v5.18l.07.03c2.3.86,4.83.86,7.13,0l.07-.03v-5.18h4.82l.03-.07c.41-1.05.63-2.18.65-3.31.02-1.14-.23-2.27-.65-3.32Zm-.99,5.5h-3.79l-2.18-2.18,2.18-2.19h3.78c.23.71.35,1.45.36,2.17,0,.75-.13,1.48-.35,2.2Z" fill="#000000" style="fill: rgb(0, 0, 0);"/></svg><text x="900" y="254" fill="#111111" font-family="Arial" font-size="14px" font-weight="400">RIGHT + D</text><text x="24" y="288" fill="#111111" font-family="Arial" font-size="14px" font-weight="400">Code Input Up/Navigate Menu Up/Move Forward</text><svg id="Layer_1" xmlns="http://www.w3.org/2000/svg" viewBox="0 0 27 27" x="560" y="274" width="18" height="18" preserveAspectRatio="xMidYMid meet"><path d="m22.11,9.94l-.02-.07h-5.19v-4.83l-.07-.02c-1.05-.42-2.18-.64-3.31-.66-1.14,0-2.27.24-3.32.66l-.07.02v4.83h-5.18l-.03.07c-.86,2.29-.86,4.83,0,7.12l.03.07h5.18v4.82l.07.03c2.12.87,4.51.87,6.63,0l.07-.03v-4.82h5.19l.02-.07c.87-2.29.87-4.83,0-7.12Zm-6.42-.28l-2.18,2.18-2.19-2.18v-3.79c.71-.23,1.45-.34,2.17-.35.75,0,1.49.12,2.2.35v3.79Z" fill="#000000" style="fill: rgb(0, 0, 0);"/></svg><text x="900" y="288" fill="#111111" font-family="Arial" font-size="14px" font-weight="400">UP + W</text><text x="24" y="322" fill="#111111" font-family="Arial" font-size="14px" font-weight="400">Confirm/Interact/Inspect/Flip Switch/Pickup</text><svg id="Layer_1" xmlns="http://www.w3.org/2000/svg" viewBox="0 0 27 27" x="560" y="308" width="18" height="18" preserveAspectRatio="xMidYMid meet"><path id="Path_359" d="m18.1,2.61c2.83,1.2,5.09,3.45,6.29,6.29,1.23,2.94,1.23,6.26,0,9.2-1.2,2.83-3.45,5.09-6.29,6.29-2.94,1.23-6.26,1.23-9.2,0-2.84-1.2-5.09-3.45-6.29-6.29-1.23-2.94-1.23-6.26,0-9.2,1.2-2.83,3.45-5.09,6.29-6.29,2.94-1.23,6.26-1.23,9.2,0m.46,15.95l-3.8-10.13h-2.53l-3.8,10.13h2.58l.79-2.53h3.38l.84,2.53h2.54Zm-4.64-7.6l1.27,3.8h-3.38l1.27-3.8h.84Z" fill="#000000" style="fill: rgb(0, 0, 0);"/></svg><text x="900" y="322" fill="#111111" font-family="Arial" font-size="14px" font-weight="400">ENTER + SPACE</text><text x="24" y="356" fill="#111111" font-family="Arial" font-size="14px" font-weight="400">Context Actions/Code Buttons</text><svg id="Layer_1" xmlns="http://www.w3.org/2000/svg" viewBox="0 0 27 27" x="560" y="342" width="18" height="18" preserveAspectRatio="xMidYMid meet"><defs><style>.cls-1{stroke-width:0px;}</style></defs><path id="Path_361" class="cls-1" d="m18.1,2.61c2.83,1.2,5.09,3.45,6.29,6.29,1.23,2.94,1.23,6.26,0,9.2-1.2,2.83-3.45,5.09-6.29,6.29-2.94,1.23-6.26,1.23-9.2,0-2.83-1.2-5.09-3.45-6.29-6.29-1.23-2.94-1.23-6.26,0-9.2,1.2-2.83,3.45-5.09,6.29-6.29,2.94-1.23,6.26-1.23,9.2,0m-3.7,12.15l3.19-6.46h-2.4l-1.64,3.77c-.05.11-.1.22-.13.34-.04.15-.07.3-.08.45h-.05c-.07-.23-.12-.41-.15-.54-.01-.09-.04-.17-.07-.25l-1.61-3.77h-2.56l3.19,6.51v3.53h2.29v-3.59Z" fill="#000000" style="fill: rgb(0, 0, 0);"/></svg><svg id="Layer_1" xmlns="http://www.w3.org/2000/svg" viewBox="0 0 27 27" x="585" y="342" width="18" height="18" preserveAspectRatio="xMidYMid meet"><path id="Path_358" d="m18.1,2.61c2.83,1.2,5.09,3.45,6.29,6.29,1.23,2.94,1.23,6.26,0,9.2-1.2,2.83-3.45,5.09-6.29,6.29-2.94,1.23-6.26,1.23-9.2,0-2.83-1.2-5.09-3.46-6.29-6.29-1.23-2.94-1.23-6.26,0-9.2,1.2-2.83,3.45-5.09,6.29-6.29,2.94-1.23,6.26-1.23,9.2,0m-2.91,10.89l2.95-5.06h-2.95l-1.69,3.8-1.69-3.8h-2.95l2.95,5.06-2.95,5.06h2.95l1.69-3.8,1.69,3.8h2.95l-2.95-5.06Z" fill="#000000" style="fill: rgb(0, 0, 0);"/></svg><text x="900" y="356" fill="#111111" font-family="Arial" font-size="14px" font-weight="400">X + Y</text><text x="24" y="390" fill="#111111" font-family="Arial" font-size="14px" font-weight="400">Look/Rotate</text><svg id="Layer_1" xmlns="http://www.w3.org/2000/svg" viewBox="0 0 27 27" x="560" y="376" width="18" height="18" preserveAspectRatio="xMidYMid meet"><path d="m13.5.53c1.8,0,3.49.34,5.07,1.01s2.95,1.6,4.12,2.78,2.09,2.55,2.77,4.12,1.01,3.25,1.01,5.05-.34,3.49-1.01,5.07-1.6,2.95-2.78,4.12-2.55,2.09-4.12,2.77-3.25,1.01-5.05,1.01-3.49-.34-5.07-1.01-2.95-1.6-4.12-2.78-2.09-2.55-2.77-4.12-1.01-3.25-1.01-5.05.34-3.49,1.01-5.07,1.6-2.95,2.77-4.12,2.54-2.09,4.12-2.77,3.26-1.01,5.07-1.01Zm-4.03,3.42c-1.26.55-2.36,1.29-3.3,2.23s-1.68,2.04-2.23,3.3-.82,2.6-.82,4.03.27,2.76.82,4.03,1.29,2.36,2.23,3.3,2.04,1.68,3.3,2.23,2.6.82,4.03.82,2.76-.27,4.03-.82,2.36-1.29,3.3-2.23,1.68-2.04,2.23-3.3.82-2.6.82-4.03-.27-2.76-.82-4.03-1.29-2.36-2.23-3.3-2.04-1.68-3.3-2.23-2.6-.82-4.03-.82-2.76.27-4.03.82Zm7.56,1.19c1.1.48,2.06,1.13,2.88,1.95s1.47,1.78,1.95,2.88.72,2.28.72,3.54-.24,2.44-.72,3.54-1.13,2.06-1.95,2.88-1.78,1.47-2.88,1.95-2.28.72-3.54.72-2.44-.24-3.54-.72-2.06-1.13-2.88-1.95-1.47-1.78-1.95-2.88-.72-2.28-.72-3.54.24-2.44.72-3.54,1.13-2.06,1.95-2.88,1.78-1.47,2.88-1.95,2.28-.72,3.54-.72,2.44.24,3.54.72Zm-1.73,13.55h2.67l-1.95-3.03c-.05-.07-.11-.15-.16-.23s-.11-.17-.16-.26c-.07-.07-.14-.15-.2-.24s-.13-.16-.2-.22c-.05-.09-.12-.17-.2-.23s-.16-.12-.23-.18c-.05-.04-.12-.07-.19-.11s-.15-.07-.24-.11v-.03c.18-.07.35-.14.5-.2s.3-.14.45-.23c.16-.09.3-.19.42-.3s.23-.23.34-.35.2-.26.27-.39.14-.28.19-.45c.07-.14.12-.3.15-.47s.04-.34.04-.5c0-.94-.32-1.64-.95-2.11s-1.58-.7-2.84-.7h-3.67v10.32h2.35v-3.94h.59c.07,0,.14,0,.2.03s.13.05.2.08c.05.02.11.05.16.09s.11.09.16.15c.07.05.14.11.19.18s.11.14.16.23c.07.05.13.13.18.22s.1.19.18.3l1.59,2.62v.05Zm-1.38-8.27c.27.22.41.55.43,1,0,.22-.04.41-.12.59s-.2.34-.36.49c-.14.16-.32.27-.51.34s-.42.09-.68.09h-1v-2.84h1.03c.54,0,.95.11,1.22.32Z" fill="#000000" style="fill: rgb(0, 0, 0);"/></svg><text x="900" y="390" fill="#111111" font-family="Arial" font-size="14px" font-weight="400">Drag Mouse</text><text x="24" y="424" fill="#111111" font-family="Arial" font-size="14px" font-weight="400">Move/Steer</text><svg id="Layer_1" xmlns="http://www.w3.org/2000/svg" viewBox="0 0 27 27" x="560" y="410" width="18" height="18" preserveAspectRatio="xMidYMid meet"><path d="m13.5.53c1.8,0,3.49.34,5.07,1.01s2.95,1.6,4.12,2.78,2.09,2.55,2.77,4.12,1.01,3.25,1.01,5.05-.34,3.49-1.01,5.07-1.6,2.95-2.78,4.12-2.55,2.09-4.12,2.77-3.25,1.01-5.05,1.01-3.49-.34-5.07-1.01-2.95-1.6-4.12-2.78-2.09-2.55-2.77-4.12-1.01-3.25-1.01-5.05.34-3.49,1.01-5.07,1.6-2.95,2.77-4.12,2.54-2.09,4.12-2.77,3.26-1.01,5.07-1.01Zm-4.03,3.42c-1.26.55-2.36,1.29-3.3,2.23s-1.68,2.04-2.23,3.3-.82,2.6-.82,4.03.27,2.76.82,4.03,1.29,2.36,2.23,3.3,2.04,1.68,3.3,2.23,2.6.82,4.03.82,2.76-.27,4.03-.82,2.36-1.29,3.3-2.23,1.68-2.04,2.23-3.3.82-2.6.82-4.03-.27-2.76-.82-4.03-1.29-2.36-2.23-3.3-2.04-1.68-3.3-2.23-2.6-.82-4.03-.82-2.76.27-4.03.82Zm7.56,1.19c1.1.48,2.06,1.13,2.88,1.95s1.47,1.78,1.95,2.88.72,2.28.72,3.54-.24,2.44-.72,3.54-1.13,2.06-1.95,2.88-1.78,1.47-2.88,1.95-2.28.72-3.54.72-2.44-.24-3.54-.72-2.06-1.13-2.88-1.95-1.47-1.78-1.95-2.88-.72-2.28-.72-3.54.24-2.44.72-3.54,1.13-2.06,1.95-2.88,1.78-1.47,2.88-1.95,2.28-.72,3.54-.72,2.44.24,3.54.72Zm-.51,13.49v-1.84h-3.81v-8.43h-2.32v10.27h6.13Z" fill="#000000" style="fill: rgb(0, 0, 0);"/></svg><text x="900" y="424" fill="#111111" font-family="Arial" font-size="14px" font-weight="400">A + D</text><text x="24" y="458" fill="#111111" font-family="Arial" font-size="14px" font-weight="400">Pause</text><svg id="Layer_1" xmlns="http://www.w3.org/2000/svg" version="1.1" viewBox="0 0 27 27" x="560" y="444" width="18" height="18" preserveAspectRatio="xMidYMid meet">
  <!-- Generator: Adobe Illustrator 30.0.0, SVG Export Plug-In . SVG Version: 2.1.1 Build 123)  -->
  <g id="Group_689" fill="#000000" style="fill: rgb(0, 0, 0);">
    <path d="M13.5,1.2C6.7,1.2,1.2,6.7,1.2,13.5s5.5,12.3,12.3,12.3,12.3-5.5,12.3-12.3S20.3,1.2,13.5,1.2ZM18.3,17.2h-9.3v-1.3h9.3v1.3ZM18.3,14.2h-9.3v-1.3h9.3v1.3ZM18.3,11.1h-9.3v-1.3h9.3v1.3Z" fill="#000000" style="fill: rgb(0, 0, 0);"/>
  </g>
</svg><text x="900" y="458" fill="#111111" font-family="Arial" font-size="14px" font-weight="400">ESC</text></svg>
